<svg width="668" height="668" viewBox="0 0 668 668" fill="none" xmlns="http://www.w3.org/2000/svg">
<path d="M333.574 -1.14433e-05C245.105 0.00030832 160.259 35.145 97.7013 97.7026C35.144 160.26 -0.000196769 245.107 8.26279e-10 333.576C0.000317757 422.045 35.1448 506.891 97.702 569.448C160.259 632.006 245.105 667.15 333.574 667.15C422.044 667.151 506.89 632.006 569.448 569.449C632.005 506.892 667.15 422.046 667.15 333.576C667.151 289.77 658.522 246.393 641.759 205.922C624.995 165.451 600.424 128.677 569.448 97.702C538.473 66.7265 501.7 42.1555 461.228 25.3918C420.757 8.62803 377.38 -0.000106244 333.574 -1.14433e-05ZM333.574 16.6641C375.192 16.664 416.402 24.8611 454.851 40.7874C493.301 56.7137 528.237 80.0572 557.665 109.485C587.093 138.913 610.437 173.849 626.363 212.299C642.289 250.749 650.486 291.959 650.486 333.576C650.486 375.194 642.289 416.404 626.363 454.853C610.437 493.303 587.093 528.239 557.665 557.667C528.237 587.095 493.301 610.439 454.851 626.365C416.402 642.291 375.192 650.488 333.574 650.488C249.524 650.488 168.917 617.099 109.485 557.666C50.0524 498.234 16.6639 417.626 16.6641 333.576C16.6639 249.526 50.0524 168.918 109.485 109.486C168.917 50.0534 249.524 16.6644 333.574 16.6641Z" fill="#6ECFF6"/>
<path d="M474.912 398.357C459.048 398.357 446.931 394.177 438.562 385.816C430.193 377.455 426.009 364.133 426.009 345.85V287.323H453.739V348.359C453.739 359.061 455.55 366.53 459.173 370.766C462.795 375.002 468.042 377.12 474.912 377.12C481.782 377.12 487.091 375.002 490.838 370.766C494.585 366.53 496.459 359.061 496.459 348.359V287.323H523.065V345.85C523.065 364.133 518.943 377.455 510.699 385.816C502.58 394.177 490.651 398.357 474.912 398.357Z" fill="#6ECFF6"/>
<path d="M322.137 396.351V287.323H355.882C361.305 287.323 366.376 287.936 371.097 289.162C375.817 290.277 379.934 292.228 383.449 295.015C386.964 297.691 389.726 301.314 391.735 305.884C393.844 310.344 394.898 315.862 394.898 322.439C394.898 328.794 393.844 334.312 391.735 338.994C389.726 343.676 386.964 347.522 383.449 350.532C379.934 353.542 375.867 355.772 371.247 357.221C366.627 358.67 361.706 359.395 356.484 359.395H344.282V396.351H322.137ZM344.282 339.83H355.128C367.18 339.83 373.206 334.033 373.206 322.439C373.206 316.754 371.599 312.74 368.385 310.399C365.171 308.058 360.551 306.888 354.526 306.888H344.282V339.83Z" fill="#6ECFF6"/>
<path d="M253.283 396.351V287.323H280.06V396.351H253.283Z" fill="#6ECFF6"/>
<path d="M145.41 396.351V287.323H220.276V308.058H172.187V333.309H213.354V354.044H172.187V396.351H145.41Z" fill="#6ECFF6"/>
</svg>
